<svg xmlns="http://www.w3.org/2000/svg" width="48" viewBox="0 0 48 48" height="48" version="1.0"><defs><clipPath id="a"><path d="M 18 5.199219 L 34 5.199219 L 34 18 L 18 18 Z M 18 5.199219"/></clipPath><clipPath id="b"><path d="M 16 28 L 33 28 L 33 41.933594 L 16 41.933594 Z M 16 28"/></clipPath><clipPath id="c"><path d="M 2.390625 11 L 15 11 L 15 24 L 2.390625 24 Z M 2.390625 11"/></clipPath><clipPath id="d"><path d="M 2.390625 23 L 15 23 L 15 36 L 2.390625 36 Z M 2.390625 23"/></clipPath><clipPath id="e"><path d="M 10 11 L 45.738281 11 L 45.738281 25 L 10 25 Z M 10 11"/></clipPath><clipPath id="f"><path d="M 10 23 L 45.738281 23 L 45.738281 37 L 10 37 Z M 10 23"/></clipPath></defs><g clip-path="url(#a)"><path fill="#49B9B0" d="M 33.945312 13.644531 C 31.984375 8.402344 26.945312 5.207031 21.640625 5.34375 C 19.691406 5.390625 18.375 7.355469 19.046875 9.183594 L 22.261719 17.9375 Z M 33.945312 13.644531"/></g><g clip-path="url(#b)"><path fill="#03554C" d="M 32.3125 34.273438 C 29.816406 39.28125 24.472656 41.9375 19.210938 41.253906 C 17.277344 41.003906 16.171875 38.914062 17.027344 37.167969 L 21.132812 28.792969 Z M 32.3125 34.273438"/></g><g clip-path="url(#c)"><path fill="#49B9B0" d="M 14.886719 23.824219 C 14.851562 18.230469 11.226562 13.492188 6.195312 11.789062 C 4.351562 11.164062 2.4375 12.550781 2.4375 14.5 L 2.4375 23.824219 Z M 14.886719 23.824219"/></g><g clip-path="url(#d)"><path fill="#03554C" d="M 14.886719 23.824219 C 14.742188 29.3125 11.152344 33.933594 6.199219 35.609375 C 4.355469 36.234375 2.441406 34.847656 2.441406 32.898438 L 2.441406 23.824219 Z M 14.886719 23.824219"/></g><g clip-path="url(#e)"><path fill="#93D0CC" d="M 45.03125 22.136719 C 42.308594 18.476562 35.851562 11.046875 28.320312 11.046875 C 20.789062 11.046875 14.335938 18.476562 11.613281 22.136719 C 11.175781 22.726562 10.957031 23.421875 10.957031 24.121094 L 45.6875 24.121094 C 45.6875 23.421875 45.46875 22.726562 45.03125 22.136719 Z M 45.03125 22.136719"/></g><g clip-path="url(#f)"><path fill="#007D70" d="M 45.03125 25.898438 C 42.308594 29.554688 35.851562 36.988281 28.320312 36.988281 C 20.789062 36.988281 14.335938 29.554688 11.613281 25.898438 C 11.175781 25.308594 10.957031 24.609375 10.957031 23.910156 L 45.6875 23.910156 C 45.6875 24.609375 45.46875 25.308594 45.03125 25.898438 Z M 45.03125 25.898438"/></g><path fill="#353535" d="M 37.859375 23.824219 C 37.859375 24.085938 37.8125 24.335938 37.710938 24.574219 C 37.613281 24.816406 37.472656 25.027344 37.289062 25.210938 C 37.105469 25.394531 36.890625 25.535156 36.652344 25.632812 C 36.414062 25.734375 36.164062 25.785156 35.902344 25.785156 C 35.644531 25.785156 35.394531 25.734375 35.15625 25.632812 C 34.914062 25.535156 34.703125 25.394531 34.519531 25.210938 C 34.335938 25.027344 34.195312 24.816406 34.097656 24.574219 C 33.996094 24.335938 33.945312 24.085938 33.945312 23.824219 C 33.945312 23.566406 33.996094 23.316406 34.097656 23.078125 C 34.195312 22.835938 34.335938 22.625 34.519531 22.441406 C 34.703125 22.257812 34.914062 22.117188 35.15625 22.019531 C 35.394531 21.917969 35.644531 21.867188 35.902344 21.867188 C 36.164062 21.867188 36.414062 21.917969 36.652344 22.019531 C 36.890625 22.117188 37.105469 22.257812 37.289062 22.441406 C 37.472656 22.625 37.613281 22.835938 37.710938 23.078125 C 37.8125 23.316406 37.859375 23.566406 37.859375 23.824219 Z M 37.859375 23.824219"/></svg>