<svg xmlns="http://www.w3.org/2000/svg" width="600" viewBox="0 0 600 225" height="225" version="1.0"><defs><clipPath id="a"><path d="M 212.914062 22.5 L 232 22.5 L 232 42 L 212.914062 42 Z M 212.914062 22.5"/></clipPath><clipPath id="b"><path d="M 374 22.5 L 392.914062 22.5 L 392.914062 42 L 374 42 Z M 374 22.5"/></clipPath><clipPath id="c"><path d="M 242 22.5 L 258 22.5 L 258 30 L 242 30 Z M 242 22.5"/></clipPath><clipPath id="d"><path d="M 269 22.5 L 285 22.5 L 285 30 L 269 30 Z M 269 22.5"/></clipPath><clipPath id="e"><path d="M 295 22.5 L 311 22.5 L 311 30 L 295 30 Z M 295 22.5"/></clipPath><clipPath id="f"><path d="M 321 22.5 L 337 22.5 L 337 30 L 321 30 Z M 321 22.5"/></clipPath><clipPath id="g"><path d="M 347 22.5 L 363 22.5 L 363 30 L 347 30 Z M 347 22.5"/></clipPath><clipPath id="h"><path d="M 242 195 L 258 195 L 258 202.5 L 242 202.5 Z M 242 195"/></clipPath><clipPath id="i"><path d="M 269 195 L 285 195 L 285 202.5 L 269 202.5 Z M 269 195"/></clipPath><clipPath id="j"><path d="M 295 195 L 311 195 L 311 202.5 L 295 202.5 Z M 295 195"/></clipPath><clipPath id="k"><path d="M 321 195 L 337 195 L 337 202.5 L 321 202.5 Z M 321 195"/></clipPath><clipPath id="l"><path d="M 347 195 L 363 195 L 363 202.5 L 347 202.5 Z M 347 195"/></clipPath><clipPath id="m"><path d="M 374 183 L 392.914062 183 L 392.914062 202.5 L 374 202.5 Z M 374 183"/></clipPath><clipPath id="n"><path d="M 385 52 L 392.914062 52 L 392.914062 68 L 385 68 Z M 385 52"/></clipPath><clipPath id="o"><path d="M 385 78 L 392.914062 78 L 392.914062 94 L 385 94 Z M 385 78"/></clipPath><clipPath id="p"><path d="M 385 105 L 392.914062 105 L 392.914062 120 L 385 120 Z M 385 105"/></clipPath><clipPath id="q"><path d="M 385 131 L 392.914062 131 L 392.914062 147 L 385 147 Z M 385 131"/></clipPath><clipPath id="r"><path d="M 385 157 L 392.914062 157 L 392.914062 173 L 385 173 Z M 385 157"/></clipPath><clipPath id="s"><path d="M 212.914062 183 L 232 183 L 232 202.5 L 212.914062 202.5 Z M 212.914062 183"/></clipPath><clipPath id="t"><path d="M 212.914062 52 L 221 52 L 221 68 L 212.914062 68 Z M 212.914062 52"/></clipPath><clipPath id="u"><path d="M 212.914062 78 L 221 78 L 221 94 L 212.914062 94 Z M 212.914062 78"/></clipPath><clipPath id="v"><path d="M 212.914062 105 L 221 105 L 221 120 L 212.914062 120 Z M 212.914062 105"/></clipPath><clipPath id="w"><path d="M 212.914062 131 L 221 131 L 221 147 L 212.914062 147 Z M 212.914062 131"/></clipPath><clipPath id="x"><path d="M 212.914062 157 L 221 157 L 221 173 L 212.914062 173 Z M 212.914062 157"/></clipPath></defs><g clip-path="url(#a)"><path d="M 220.414062 30 L 231.664062 30 L 231.664062 22.5 L 212.914062 22.5 L 212.914062 41.25 L 220.414062 41.25 Z M 220.414062 30"/></g><g clip-path="url(#b)"><path d="M 374.164062 30 L 385.414062 30 L 385.414062 41.25 L 392.914062 41.25 L 392.914062 22.5 L 374.164062 22.5 Z M 374.164062 30"/></g><g clip-path="url(#c)"><path d="M 242.914062 22.5 L 257.914062 22.5 L 257.914062 30 L 242.914062 30 Z M 242.914062 22.5"/></g><g clip-path="url(#d)"><path d="M 269.164062 22.5 L 284.164062 22.5 L 284.164062 30 L 269.164062 30 Z M 269.164062 22.5"/></g><g clip-path="url(#e)"><path d="M 295.414062 22.5 L 310.414062 22.5 L 310.414062 30 L 295.414062 30 Z M 295.414062 22.5"/></g><g clip-path="url(#f)"><path d="M 321.664062 22.5 L 336.664062 22.5 L 336.664062 30 L 321.664062 30 Z M 321.664062 22.5"/></g><g clip-path="url(#g)"><path d="M 347.914062 22.5 L 362.914062 22.5 L 362.914062 30 L 347.914062 30 Z M 347.914062 22.5"/></g><g clip-path="url(#h)"><path d="M 242.914062 195 L 257.914062 195 L 257.914062 202.5 L 242.914062 202.5 Z M 242.914062 195"/></g><g clip-path="url(#i)"><path d="M 269.164062 195 L 284.164062 195 L 284.164062 202.5 L 269.164062 202.5 Z M 269.164062 195"/></g><g clip-path="url(#j)"><path d="M 295.414062 195 L 310.414062 195 L 310.414062 202.5 L 295.414062 202.5 Z M 295.414062 195"/></g><g clip-path="url(#k)"><path d="M 321.664062 195 L 336.664062 195 L 336.664062 202.5 L 321.664062 202.5 Z M 321.664062 195"/></g><g clip-path="url(#l)"><path d="M 347.914062 195 L 362.914062 195 L 362.914062 202.5 L 347.914062 202.5 Z M 347.914062 195"/></g><g clip-path="url(#m)"><path d="M 385.414062 195 L 374.164062 195 L 374.164062 202.5 L 392.914062 202.5 L 392.914062 183.75 L 385.414062 183.75 Z M 385.414062 195"/></g><g clip-path="url(#n)"><path d="M 385.414062 52.5 L 392.914062 52.5 L 392.914062 67.5 L 385.414062 67.5 Z M 385.414062 52.5"/></g><g clip-path="url(#o)"><path d="M 385.414062 78.75 L 392.914062 78.75 L 392.914062 93.75 L 385.414062 93.75 Z M 385.414062 78.75"/></g><g clip-path="url(#p)"><path d="M 385.414062 105 L 392.914062 105 L 392.914062 120 L 385.414062 120 Z M 385.414062 105"/></g><g clip-path="url(#q)"><path d="M 385.414062 131.25 L 392.914062 131.25 L 392.914062 146.25 L 385.414062 146.25 Z M 385.414062 131.25"/></g><g clip-path="url(#r)"><path d="M 385.414062 157.5 L 392.914062 157.5 L 392.914062 172.5 L 385.414062 172.5 Z M 385.414062 157.5"/></g><g clip-path="url(#s)"><path d="M 231.664062 195 L 220.414062 195 L 220.414062 183.75 L 212.914062 183.75 L 212.914062 202.5 L 231.664062 202.5 Z M 231.664062 195"/></g><g clip-path="url(#t)"><path d="M 212.914062 52.5 L 220.414062 52.5 L 220.414062 67.5 L 212.914062 67.5 Z M 212.914062 52.5"/></g><g clip-path="url(#u)"><path d="M 212.914062 78.75 L 220.414062 78.75 L 220.414062 93.75 L 212.914062 93.75 Z M 212.914062 78.75"/></g><g clip-path="url(#v)"><path d="M 212.914062 105 L 220.414062 105 L 220.414062 120 L 212.914062 120 Z M 212.914062 105"/></g><g clip-path="url(#w)"><path d="M 212.914062 131.25 L 220.414062 131.25 L 220.414062 146.25 L 212.914062 146.25 Z M 212.914062 131.25"/></g><g clip-path="url(#x)"><path d="M 212.914062 157.5 L 220.414062 157.5 L 220.414062 172.5 L 212.914062 172.5 Z M 212.914062 157.5"/></g><g><g><g><path d="M 15.851562 -21.148438 C 15.65625 -21.667969 15.261719 -22.128906 14.742188 -22.550781 C 14.183594 -22.945312 13.53125 -23.171875 12.78125 -23.171875 C 11.996094 -23.171875 11.339844 -22.945312 10.785156 -22.550781 C 10.230469 -22.160156 9.839844 -21.667969 9.640625 -21.148438 L 2.613281 -3.496094 C 2.484375 -3.203125 2.453125 -2.910156 2.453125 -2.582031 C 2.453125 -2.289062 2.484375 -1.992188 2.613281 -1.699219 C 2.746094 -1.371094 2.910156 -1.109375 3.136719 -0.882812 C 3.367188 -0.621094 3.660156 -0.425781 4.019531 -0.261719 C 4.347656 -0.0976562 4.738281 -0.03125 5.195312 -0.03125 C 5.851562 -0.03125 6.40625 -0.195312 6.863281 -0.554688 C 7.289062 -0.882812 7.582031 -1.273438 7.777344 -1.730469 L 9.609375 -6.339844 C 9.640625 -6.40625 9.707031 -6.472656 9.773438 -6.535156 C 9.839844 -6.570312 9.9375 -6.601562 10 -6.601562 L 15.523438 -6.601562 C 15.65625 -6.601562 15.785156 -6.503906 15.917969 -6.339844 L 17.714844 -1.730469 C 17.878906 -1.273438 18.171875 -0.882812 18.628906 -0.554688 C 19.054688 -0.195312 19.609375 -0.03125 20.296875 -0.03125 C 20.753906 -0.03125 21.148438 -0.0976562 21.472656 -0.261719 C 21.800781 -0.425781 22.09375 -0.621094 22.355469 -0.882812 C 22.585938 -1.109375 22.75 -1.371094 22.878906 -1.699219 C 23.011719 -1.992188 23.074219 -2.289062 23.074219 -2.582031 C 23.074219 -2.910156 23.011719 -3.234375 22.878906 -3.496094 Z M 12.746094 -14.152344 C 12.8125 -13.957031 12.878906 -13.792969 12.941406 -13.628906 C 13.007812 -13.433594 13.105469 -13.269531 13.171875 -13.074219 C 13.238281 -12.84375 13.335938 -12.648438 13.433594 -12.453125 C 13.5 -12.257812 13.5625 -12.0625 13.628906 -11.898438 C 13.660156 -11.800781 13.695312 -11.734375 13.695312 -11.734375 L 11.734375 -11.734375 C 11.765625 -11.765625 11.800781 -11.800781 11.800781 -11.863281 C 11.929688 -12.257812 12.09375 -12.617188 12.257812 -13.007812 C 12.386719 -13.402344 12.550781 -13.761719 12.746094 -14.152344 Z M 12.746094 -14.152344" transform="translate(265.038 101.058)"/></g></g></g><g><g><g><path d="M 10.65625 0.03125 C 12.355469 0.03125 13.921875 -0.230469 15.394531 -0.785156 C 16.863281 -1.339844 18.140625 -2.125 19.21875 -3.136719 C 20.265625 -4.152344 21.113281 -5.359375 21.734375 -6.796875 C 22.324219 -8.238281 22.648438 -9.804688 22.648438 -11.570312 C 22.648438 -13.300781 22.324219 -14.871094 21.734375 -16.308594 C 21.113281 -17.746094 20.265625 -18.957031 19.21875 -19.96875 C 18.140625 -20.984375 16.863281 -21.769531 15.425781 -22.324219 C 13.957031 -22.878906 12.355469 -23.171875 10.65625 -23.171875 L 5.230469 -23.171875 C 4.773438 -23.171875 4.347656 -23.074219 3.988281 -22.910156 C 3.628906 -22.75 3.332031 -22.550781 3.105469 -22.289062 C 2.875 -22.03125 2.710938 -21.769531 2.582031 -21.472656 C 2.453125 -21.148438 2.417969 -20.851562 2.417969 -20.558594 L 2.417969 -2.613281 C 2.417969 -2.320312 2.453125 -2.027344 2.582031 -1.699219 C 2.710938 -1.371094 2.875 -1.109375 3.105469 -0.851562 C 3.332031 -0.589844 3.628906 -0.359375 3.988281 -0.195312 C 4.347656 -0.03125 4.773438 0.03125 5.230469 0.03125 Z M 10.65625 -5.164062 L 8.367188 -5.164062 C 8.300781 -5.164062 8.203125 -5.195312 8.105469 -5.261719 C 7.976562 -5.328125 7.941406 -5.457031 7.941406 -5.65625 L 7.941406 -17.484375 C 7.941406 -17.648438 7.976562 -17.78125 8.105469 -17.878906 C 8.203125 -17.945312 8.300781 -18.007812 8.367188 -18.007812 L 10.65625 -18.007812 C 11.699219 -18.007812 12.648438 -17.84375 13.464844 -17.519531 C 14.25 -17.191406 14.9375 -16.734375 15.492188 -16.144531 C 16.015625 -15.558594 16.441406 -14.902344 16.703125 -14.121094 C 16.964844 -13.335938 17.125 -12.484375 17.125 -11.601562 C 17.125 -10.6875 16.964844 -9.871094 16.703125 -9.085938 C 16.441406 -8.300781 16.015625 -7.617188 15.492188 -7.027344 C 14.9375 -6.4375 14.25 -5.980469 13.464844 -5.65625 C 12.648438 -5.328125 11.699219 -5.164062 10.65625 -5.164062 Z M 10.65625 -5.164062" transform="translate(290.528 101.058)"/></g></g></g><g><g><g><path d="M 10.65625 0.03125 C 12.355469 0.03125 13.921875 -0.230469 15.394531 -0.785156 C 16.863281 -1.339844 18.140625 -2.125 19.21875 -3.136719 C 20.265625 -4.152344 21.113281 -5.359375 21.734375 -6.796875 C 22.324219 -8.238281 22.648438 -9.804688 22.648438 -11.570312 C 22.648438 -13.300781 22.324219 -14.871094 21.734375 -16.308594 C 21.113281 -17.746094 20.265625 -18.957031 19.21875 -19.96875 C 18.140625 -20.984375 16.863281 -21.769531 15.425781 -22.324219 C 13.957031 -22.878906 12.355469 -23.171875 10.65625 -23.171875 L 5.230469 -23.171875 C 4.773438 -23.171875 4.347656 -23.074219 3.988281 -22.910156 C 3.628906 -22.75 3.332031 -22.550781 3.105469 -22.289062 C 2.875 -22.03125 2.710938 -21.769531 2.582031 -21.472656 C 2.453125 -21.148438 2.417969 -20.851562 2.417969 -20.558594 L 2.417969 -2.613281 C 2.417969 -2.320312 2.453125 -2.027344 2.582031 -1.699219 C 2.710938 -1.371094 2.875 -1.109375 3.105469 -0.851562 C 3.332031 -0.589844 3.628906 -0.359375 3.988281 -0.195312 C 4.347656 -0.03125 4.773438 0.03125 5.230469 0.03125 Z M 10.65625 -5.164062 L 8.367188 -5.164062 C 8.300781 -5.164062 8.203125 -5.195312 8.105469 -5.261719 C 7.976562 -5.328125 7.941406 -5.457031 7.941406 -5.65625 L 7.941406 -17.484375 C 7.941406 -17.648438 7.976562 -17.78125 8.105469 -17.878906 C 8.203125 -17.945312 8.300781 -18.007812 8.367188 -18.007812 L 10.65625 -18.007812 C 11.699219 -18.007812 12.648438 -17.84375 13.464844 -17.519531 C 14.25 -17.191406 14.9375 -16.734375 15.492188 -16.144531 C 16.015625 -15.558594 16.441406 -14.902344 16.703125 -14.121094 C 16.964844 -13.335938 17.125 -12.484375 17.125 -11.601562 C 17.125 -10.6875 16.964844 -9.871094 16.703125 -9.085938 C 16.441406 -8.300781 16.015625 -7.617188 15.492188 -7.027344 C 14.9375 -6.4375 14.25 -5.980469 13.464844 -5.65625 C 12.648438 -5.328125 11.699219 -5.164062 10.65625 -5.164062 Z M 10.65625 -5.164062" transform="translate(315.659 101.058)"/></g></g></g><g><g><g><path d="M 2.386719 -2.550781 C 2.386719 -2.222656 2.453125 -1.929688 2.582031 -1.632812 C 2.710938 -1.308594 2.875 -1.046875 3.136719 -0.816406 C 3.367188 -0.554688 3.660156 -0.359375 4.019531 -0.230469 C 4.347656 -0.0664062 4.738281 0 5.195312 0 C 5.65625 0 6.046875 -0.0664062 6.40625 -0.230469 C 6.734375 -0.390625 7.027344 -0.589844 7.257812 -0.851562 C 7.484375 -1.109375 7.648438 -1.371094 7.777344 -1.699219 C 7.875 -1.992188 7.941406 -2.289062 7.941406 -2.582031 L 7.941406 -20.558594 C 7.941406 -20.851562 7.875 -21.148438 7.746094 -21.472656 C 7.617188 -21.769531 7.453125 -22.03125 7.222656 -22.289062 C 6.960938 -22.519531 6.667969 -22.714844 6.339844 -22.878906 C 6.015625 -23.042969 5.621094 -23.140625 5.164062 -23.140625 C 4.707031 -23.140625 4.28125 -23.042969 3.953125 -22.878906 C 3.628906 -22.714844 3.332031 -22.519531 3.105469 -22.257812 C 2.84375 -21.996094 2.679688 -21.734375 2.550781 -21.441406 C 2.417969 -21.113281 2.386719 -20.820312 2.386719 -20.558594 Z M 2.386719 -2.550781" transform="translate(248.027 146.01)"/></g></g></g><g><g><g><path d="M 7.910156 -13.726562 L 12.257812 -9.21875 C 12.421875 -9.019531 12.617188 -8.890625 12.878906 -8.757812 C 13.140625 -8.628906 13.402344 -8.5625 13.726562 -8.5625 C 14.054688 -8.5625 14.316406 -8.628906 14.578125 -8.757812 C 14.839844 -8.890625 15.035156 -9.019531 15.230469 -9.21875 L 19.578125 -13.726562 L 19.578125 -2.515625 C 19.578125 -2.222656 19.609375 -1.929688 19.742188 -1.632812 C 19.871094 -1.308594 20.035156 -1.046875 20.265625 -0.785156 C 20.492188 -0.523438 20.789062 -0.292969 21.113281 -0.128906 C 21.441406 0.03125 21.867188 0.0976562 22.324219 0.0976562 C 22.78125 0.0976562 23.171875 0.03125 23.5 -0.128906 C 23.828125 -0.292969 24.121094 -0.492188 24.351562 -0.75 C 24.578125 -1.011719 24.742188 -1.273438 24.871094 -1.601562 C 25.003906 -1.894531 25.070312 -2.191406 25.070312 -2.484375 L 25.070312 -20.492188 C 25.070312 -20.789062 25.003906 -21.082031 24.871094 -21.375 C 24.742188 -21.667969 24.578125 -21.929688 24.351562 -22.191406 C 24.089844 -22.453125 23.792969 -22.648438 23.46875 -22.8125 C 23.140625 -22.945312 22.75 -23.042969 22.289062 -23.042969 C 21.867188 -23.042969 21.472656 -22.945312 21.113281 -22.8125 C 20.753906 -22.648438 20.460938 -22.453125 20.230469 -22.226562 L 13.660156 -15.363281 L 7.257812 -22.289062 C 6.734375 -22.847656 6.046875 -23.140625 5.195312 -23.140625 C 4.738281 -23.140625 4.3125 -23.042969 3.988281 -22.878906 C 3.660156 -22.714844 3.367188 -22.519531 3.136719 -22.257812 C 2.875 -21.996094 2.710938 -21.734375 2.582031 -21.441406 C 2.453125 -21.113281 2.417969 -20.820312 2.417969 -20.558594 L 2.417969 -2.550781 C 2.417969 -2.253906 2.453125 -1.960938 2.582031 -1.667969 C 2.710938 -1.339844 2.875 -1.078125 3.105469 -0.816406 C 3.332031 -0.554688 3.628906 -0.328125 3.953125 -0.164062 C 4.28125 0 4.707031 0.0664062 5.164062 0.0664062 C 5.621094 0.0664062 6.015625 0 6.375 -0.164062 C 6.699219 -0.328125 6.996094 -0.523438 7.222656 -0.785156 C 7.453125 -1.046875 7.617188 -1.308594 7.746094 -1.632812 C 7.84375 -1.929688 7.910156 -2.222656 7.910156 -2.515625 Z M 7.910156 -13.726562" transform="translate(258.452 146.01)"/></g></g></g><g><g><g><path d="M 15.851562 -21.148438 C 15.65625 -21.667969 15.261719 -22.128906 14.742188 -22.550781 C 14.183594 -22.945312 13.53125 -23.171875 12.78125 -23.171875 C 11.996094 -23.171875 11.339844 -22.945312 10.785156 -22.550781 C 10.230469 -22.160156 9.839844 -21.667969 9.640625 -21.148438 L 2.613281 -3.496094 C 2.484375 -3.203125 2.453125 -2.910156 2.453125 -2.582031 C 2.453125 -2.289062 2.484375 -1.992188 2.613281 -1.699219 C 2.746094 -1.371094 2.910156 -1.109375 3.136719 -0.882812 C 3.367188 -0.621094 3.660156 -0.425781 4.019531 -0.261719 C 4.347656 -0.0976562 4.738281 -0.03125 5.195312 -0.03125 C 5.851562 -0.03125 6.40625 -0.195312 6.863281 -0.554688 C 7.289062 -0.882812 7.582031 -1.273438 7.777344 -1.730469 L 9.609375 -6.339844 C 9.640625 -6.40625 9.707031 -6.472656 9.773438 -6.535156 C 9.839844 -6.570312 9.9375 -6.601562 10 -6.601562 L 15.523438 -6.601562 C 15.65625 -6.601562 15.785156 -6.503906 15.917969 -6.339844 L 17.714844 -1.730469 C 17.878906 -1.273438 18.171875 -0.882812 18.628906 -0.554688 C 19.054688 -0.195312 19.609375 -0.03125 20.296875 -0.03125 C 20.753906 -0.03125 21.148438 -0.0976562 21.472656 -0.261719 C 21.800781 -0.425781 22.09375 -0.621094 22.355469 -0.882812 C 22.585938 -1.109375 22.75 -1.371094 22.878906 -1.699219 C 23.011719 -1.992188 23.074219 -2.289062 23.074219 -2.582031 C 23.074219 -2.910156 23.011719 -3.234375 22.878906 -3.496094 Z M 12.746094 -14.152344 C 12.8125 -13.957031 12.878906 -13.792969 12.941406 -13.628906 C 13.007812 -13.433594 13.105469 -13.269531 13.171875 -13.074219 C 13.238281 -12.84375 13.335938 -12.648438 13.433594 -12.453125 C 13.5 -12.257812 13.5625 -12.0625 13.628906 -11.898438 C 13.660156 -11.800781 13.695312 -11.734375 13.695312 -11.734375 L 11.734375 -11.734375 C 11.765625 -11.765625 11.800781 -11.800781 11.800781 -11.863281 C 11.929688 -12.257812 12.09375 -12.617188 12.257812 -13.007812 C 12.386719 -13.402344 12.550781 -13.761719 12.746094 -14.152344 Z M 12.746094 -14.152344" transform="translate(286.1 146.01)"/></g></g></g><g><g><g><path d="M 7.941406 -11.539062 C 7.941406 -12.421875 8.074219 -13.269531 8.335938 -14.054688 C 8.597656 -14.839844 9.019531 -15.523438 9.578125 -16.113281 C 10.097656 -16.703125 10.785156 -17.160156 11.601562 -17.484375 C 12.421875 -17.8125 13.367188 -18.007812 14.445312 -18.007812 C 15.230469 -18.007812 16.015625 -17.878906 16.800781 -17.648438 C 17.585938 -17.386719 18.304688 -16.996094 18.925781 -16.472656 C 19.285156 -16.113281 19.609375 -15.820312 19.9375 -15.625 C 20.265625 -15.394531 20.6875 -15.296875 21.277344 -15.296875 C 21.734375 -15.296875 22.128906 -15.363281 22.488281 -15.523438 C 22.8125 -15.6875 23.109375 -15.882812 23.335938 -16.144531 C 23.566406 -16.40625 23.730469 -16.667969 23.859375 -16.996094 C 23.992188 -17.289062 24.054688 -17.585938 24.054688 -17.878906 C 24.054688 -18.5 23.828125 -19.085938 23.371094 -19.609375 C 22.847656 -20.199219 22.226562 -20.722656 21.507812 -21.179688 C 20.789062 -21.636719 20.066406 -21.996094 19.285156 -22.289062 C 18.5 -22.585938 17.683594 -22.8125 16.863281 -22.945312 C 16.015625 -23.074219 15.230469 -23.171875 14.445312 -23.171875 C 12.746094 -23.171875 11.144531 -22.878906 9.675781 -22.324219 C 8.203125 -21.769531 6.929688 -20.984375 5.882812 -19.96875 C 4.804688 -18.957031 3.953125 -17.746094 3.367188 -16.34375 C 2.746094 -14.902344 2.453125 -13.335938 2.453125 -11.601562 C 2.453125 -9.839844 2.746094 -8.269531 3.367188 -6.832031 C 3.953125 -5.394531 4.804688 -4.183594 5.882812 -3.171875 C 6.929688 -2.15625 8.203125 -1.371094 9.675781 -0.816406 C 11.144531 -0.261719 12.746094 0 14.445312 0 C 16.144531 0 17.78125 -0.292969 19.382812 -0.882812 C 20.949219 -1.472656 22.289062 -2.386719 23.371094 -3.5625 C 23.597656 -3.824219 23.761719 -4.085938 23.890625 -4.347656 C 24.023438 -4.609375 24.089844 -4.933594 24.089844 -5.292969 L 24.089844 -9.902344 C 24.089844 -10.199219 24.023438 -10.492188 23.890625 -10.820312 C 23.761719 -11.113281 23.597656 -11.375 23.371094 -11.636719 C 23.109375 -11.863281 22.8125 -12.0625 22.488281 -12.222656 C 22.128906 -12.386719 21.734375 -12.484375 21.308594 -12.484375 L 13.921875 -12.484375 C 13.464844 -12.484375 13.042969 -12.386719 12.714844 -12.222656 C 12.355469 -12.0625 12.0625 -11.863281 11.832031 -11.601562 C 11.601562 -11.339844 11.441406 -11.046875 11.308594 -10.753906 C 11.179688 -10.425781 11.144531 -10.132812 11.144531 -9.871094 C 11.144531 -9.578125 11.179688 -9.28125 11.308594 -8.988281 C 11.441406 -8.660156 11.601562 -8.398438 11.832031 -8.136719 C 12.0625 -7.875 12.355469 -7.648438 12.679688 -7.484375 C 13.007812 -7.320312 13.433594 -7.257812 13.890625 -7.257812 L 18.105469 -7.257812 C 18.171875 -7.257812 18.238281 -7.191406 18.367188 -7.125 C 18.464844 -7.058594 18.53125 -6.929688 18.53125 -6.765625 C 18.53125 -6.570312 18.5 -6.4375 18.464844 -6.375 C 18.433594 -6.308594 18.367188 -6.210938 18.269531 -6.144531 C 18.074219 -5.980469 17.8125 -5.851562 17.484375 -5.71875 C 17.160156 -5.589844 16.832031 -5.457031 16.503906 -5.394531 C 16.144531 -5.292969 15.785156 -5.230469 15.425781 -5.195312 C 15.035156 -5.132812 14.707031 -5.132812 14.414062 -5.132812 C 13.335938 -5.132812 12.386719 -5.292969 11.601562 -5.621094 C 10.785156 -5.949219 10.097656 -6.375 9.578125 -6.960938 C 9.019531 -7.550781 8.597656 -8.203125 8.335938 -8.988281 C 8.074219 -9.773438 7.941406 -10.621094 7.941406 -11.539062 Z M 7.941406 -11.539062" transform="translate(311.59 146.01)"/></g></g></g><g><g><g><path d="M 5.195312 0 L 14.445312 0 C 14.902344 0 15.296875 -0.0664062 15.65625 -0.230469 C 15.984375 -0.390625 16.277344 -0.589844 16.503906 -0.851562 C 16.734375 -1.109375 16.898438 -1.371094 17.027344 -1.699219 C 17.125 -1.992188 17.191406 -2.289062 17.191406 -2.582031 C 17.191406 -2.875 17.125 -3.171875 16.996094 -3.496094 C 16.863281 -3.792969 16.703125 -4.054688 16.472656 -4.3125 C 16.210938 -4.542969 15.917969 -4.738281 15.589844 -4.902344 C 15.261719 -5.066406 14.871094 -5.164062 14.414062 -5.164062 L 8.335938 -5.164062 C 8.269531 -5.164062 8.171875 -5.195312 8.074219 -5.261719 C 7.941406 -5.328125 7.910156 -5.457031 7.910156 -5.65625 L 7.910156 -9.054688 C 7.910156 -9.21875 7.941406 -9.347656 8.074219 -9.445312 C 8.171875 -9.511719 8.269531 -9.578125 8.335938 -9.578125 L 12.714844 -9.578125 C 13.171875 -9.578125 13.5625 -9.640625 13.890625 -9.804688 C 14.21875 -9.96875 14.511719 -10.164062 14.742188 -10.425781 C 14.96875 -10.6875 15.132812 -10.949219 15.261719 -11.277344 C 15.394531 -11.570312 15.460938 -11.863281 15.460938 -12.160156 C 15.460938 -12.453125 15.394531 -12.746094 15.261719 -13.074219 C 15.132812 -13.367188 14.96875 -13.628906 14.742188 -13.890625 C 14.480469 -14.121094 14.183594 -14.316406 13.859375 -14.480469 C 13.53125 -14.644531 13.140625 -14.742188 12.679688 -14.742188 L 8.300781 -14.742188 C 8.238281 -14.742188 8.136719 -14.773438 8.039062 -14.839844 C 7.910156 -14.902344 7.875 -15.035156 7.875 -15.230469 L 7.875 -17.484375 C 7.875 -17.648438 7.910156 -17.78125 8.039062 -17.878906 C 8.136719 -17.945312 8.238281 -18.007812 8.300781 -18.007812 L 14.382812 -18.007812 C 14.839844 -18.007812 15.230469 -18.074219 15.589844 -18.238281 C 15.917969 -18.402344 16.210938 -18.597656 16.441406 -18.859375 C 16.667969 -19.085938 16.832031 -19.347656 16.964844 -19.675781 C 17.0625 -19.96875 17.125 -20.265625 17.125 -20.558594 C 17.125 -20.851562 17.0625 -21.148438 16.929688 -21.472656 C 16.800781 -21.769531 16.636719 -22.03125 16.40625 -22.289062 C 16.144531 -22.519531 15.851562 -22.714844 15.523438 -22.878906 C 15.199219 -23.042969 14.804688 -23.140625 14.347656 -23.140625 L 5.097656 -23.140625 C 4.640625 -23.140625 4.214844 -23.042969 3.890625 -22.878906 C 3.5625 -22.714844 3.269531 -22.519531 3.039062 -22.257812 C 2.777344 -21.996094 2.613281 -21.734375 2.484375 -21.441406 C 2.351562 -21.113281 2.320312 -20.820312 2.320312 -20.558594 L 2.320312 -2.550781 C 2.320312 -2.222656 2.386719 -1.894531 2.515625 -1.601562 C 2.648438 -1.273438 2.84375 -1.011719 3.105469 -0.785156 C 3.367188 -0.523438 3.660156 -0.328125 4.019531 -0.195312 C 4.378906 -0.0664062 4.773438 0 5.195312 0 Z M 5.195312 0" transform="translate(338.126 146.01)"/></g></g></g></svg>