<svg xmlns="http://www.w3.org/2000/svg" xmlns:xlink="http://www.w3.org/1999/xlink" width="100" zoomAndPan="magnify" viewBox="0 0 75 74.999997" height="100" preserveAspectRatio="xMidYMid meet" version="1.0"><defs><clipPath id="id1"><path d="M 11 17.269531 L 63 17.269531 L 63 34 L 11 34 Z M 11 17.269531 " clip-rule="nonzero"/></clipPath><clipPath id="id2"><path d="M 0.460938 21 L 62 21 L 62 53 L 0.460938 53 Z M 0.460938 21 " clip-rule="nonzero"/></clipPath><clipPath id="id3"><path d="M 59 27 L 74.710938 27 L 74.710938 53 L 59 53 Z M 59 27 " clip-rule="nonzero"/></clipPath></defs><path fill="rgb(57.649231%, 72.158813%, 78.819275%)" d="M 64.164062 50.929688 C 56.671875 49.828125 57.757812 39.652344 44.046875 41.507812 C 35.210938 39.96875 24.851562 34.96875 24.136719 39.066406 C 23.421875 43.164062 28.964844 54.695312 37.800781 56.234375 C 46.636719 57.769531 63.449219 55.027344 64.164062 50.929688 " fill-opacity="1" fill-rule="nonzero"/><g clip-path="url(#id1)"><path fill="rgb(57.649231%, 72.158813%, 78.819275%)" d="M 62.816406 22.867188 C 62.816406 29.089844 57.382812 33.65625 44.992188 33.65625 C 32.601562 33.65625 11.160156 29.773438 11.160156 25.464844 C 11.160156 21.160156 16.246094 17.273438 38.683594 17.273438 C 51.128906 17.847656 55.246094 21.765625 62.816406 22.867188 " fill-opacity="1" fill-rule="nonzero"/></g><g clip-path="url(#id2)"><path fill="rgb(32.939148%, 75.289917%, 80.389404%)" d="M 21.964844 21.765625 C 9.878906 21.765625 4.851562 29.246094 0.59375 36.058594 C 0.59375 36.144531 0.605469 36.226562 0.605469 36.3125 C 1.457031 36.363281 2.316406 36.355469 3.074219 36.347656 C 4.53125 36.328125 5.617188 36.3125 5.5625 36.71875 C 5.484375 37.28125 3.257812 38.472656 0.960938 38.757812 C 3.441406 47.804688 18.339844 52.402344 32.453125 52.402344 C 47.59375 52.402344 52.800781 44.054688 61.945312 41.769531 L 61.945312 36.058594 C 49.644531 32.238281 42.074219 21.765625 21.964844 21.765625 " fill-opacity="1" fill-rule="nonzero"/></g><path fill="rgb(82.749939%, 82.348633%, 82.348633%)" d="M 61.945312 36.058594 C 60.71875 35.679688 59.535156 35.230469 58.382812 34.730469 C 58.382812 34.730469 58.386719 34.730469 58.386719 34.730469 C 59.539062 35.226562 60.71875 35.679688 61.945312 36.058594 " fill-opacity="1" fill-rule="nonzero"/><path fill="rgb(27.059937%, 61.959839%, 66.268921%)" d="M 32.453125 52.402344 C 32.445312 52.402344 32.4375 52.402344 32.429688 52.402344 C 32.425781 52.402344 32.425781 52.402344 32.421875 52.402344 C 32.417969 52.402344 32.410156 52.402344 32.40625 52.402344 C 32.402344 52.402344 32.398438 52.402344 32.398438 52.402344 C 32.390625 52.402344 32.382812 52.402344 32.378906 52.402344 C 32.375 52.402344 32.375 52.402344 32.375 52.402344 C 32.367188 52.402344 32.355469 52.402344 32.347656 52.402344 C 32.347656 52.402344 32.34375 52.402344 32.34375 52.402344 C 32.335938 52.402344 32.332031 52.402344 32.324219 52.402344 C 32.320312 52.402344 32.320312 52.402344 32.316406 52.402344 C 32.3125 52.402344 32.304688 52.402344 32.296875 52.402344 C 32.296875 52.402344 32.292969 52.402344 32.292969 52.402344 C 32.277344 52.402344 32.257812 52.402344 32.242188 52.402344 C 32.242188 52.402344 32.238281 52.402344 32.238281 52.402344 C 32.230469 52.402344 32.222656 52.402344 32.21875 52.402344 C 32.214844 52.402344 32.214844 52.402344 32.214844 52.402344 C 23.246094 52.371094 13.992188 50.480469 7.832031 46.777344 C 8.15625 46.640625 8.480469 46.5 8.800781 46.351562 C 11.824219 44.96875 18.78125 42.5625 19.46875 34.945312 C 21.851562 41.769531 15.027344 45.382812 15.285156 45.945312 C 19.003906 47.410156 23.269531 48.457031 28.125 48.457031 C 33.085938 48.457031 38.660156 47.363281 44.886719 44.515625 C 50.597656 41.902344 55.289062 38.390625 58.382812 34.730469 C 59.535156 35.230469 60.71875 35.679688 61.945312 36.058594 L 61.945312 41.769531 C 52.800781 44.054688 47.59375 52.402344 32.453125 52.402344 " fill-opacity="1" fill-rule="nonzero"/><path fill="rgb(100%, 100%, 100%)" d="M 14.753906 31.1875 C 14.746094 33.179688 13.125 34.785156 11.132812 34.777344 C 9.144531 34.769531 7.535156 33.152344 7.542969 31.164062 C 7.550781 29.175781 9.171875 27.566406 11.160156 27.574219 C 13.152344 27.582031 14.761719 29.203125 14.753906 31.1875 " fill-opacity="1" fill-rule="nonzero"/><path fill="rgb(20.779419%, 12.159729%, 9.01947%)" d="M 12.082031 30.40625 C 11.246094 30.40625 10.570312 30.089844 10.570312 29.703125 C 10.574219 29.320312 11.25 29.007812 12.085938 29.011719 C 12.148438 29.011719 12.207031 29.015625 12.269531 29.019531 C 11.933594 28.847656 11.558594 28.738281 11.15625 28.738281 C 9.808594 28.730469 8.710938 29.820312 8.707031 31.167969 C 8.699219 32.515625 9.789062 33.609375 11.140625 33.613281 C 12.488281 33.621094 13.585938 32.53125 13.589844 31.183594 C 13.589844 30.796875 13.492188 30.433594 13.332031 30.105469 C 13.058594 30.289062 12.601562 30.410156 12.082031 30.40625 " fill-opacity="1" fill-rule="nonzero"/><g clip-path="url(#id3)"><path fill="rgb(57.649231%, 72.158813%, 78.819275%)" d="M 74.558594 39.542969 C 74.46875 33.269531 69.421875 23.464844 67.476562 28.378906 C 65.011719 34.054688 55.90625 37.339844 61.46875 39.542969 C 55.90625 41.75 65.011719 45.035156 67.476562 50.710938 C 69.421875 55.625 74.46875 45.820312 74.5625 39.542969 L 74.558594 39.542969 " fill-opacity="1" fill-rule="nonzero"/></g><path fill="rgb(60.389709%, 86.669922%, 82.749939%)" d="M 25.820312 25.464844 C 25.820312 26.429688 25.039062 27.210938 24.074219 27.210938 C 23.109375 27.210938 22.328125 26.429688 22.328125 25.464844 C 22.328125 24.503906 23.109375 23.71875 24.074219 23.71875 C 25.039062 23.71875 25.820312 24.503906 25.820312 25.464844 " fill-opacity="1" fill-rule="nonzero"/><path fill="rgb(60.389709%, 86.669922%, 82.749939%)" d="M 33.652344 25.828125 C 33.652344 26.792969 32.871094 27.574219 31.90625 27.574219 C 30.941406 27.574219 30.160156 26.792969 30.160156 25.828125 C 30.160156 24.867188 30.941406 24.085938 31.90625 24.085938 C 32.871094 24.085938 33.652344 24.867188 33.652344 25.828125 " fill-opacity="1" fill-rule="nonzero"/><path fill="rgb(60.389709%, 86.669922%, 82.749939%)" d="M 40.484375 28.339844 C 40.484375 29.304688 39.699219 30.085938 38.734375 30.085938 C 37.769531 30.085938 36.988281 29.304688 36.988281 28.339844 C 36.988281 27.375 37.769531 26.59375 38.734375 26.59375 C 39.699219 26.59375 40.484375 27.375 40.484375 28.339844 " fill-opacity="1" fill-rule="nonzero"/><path fill="rgb(60.389709%, 86.669922%, 82.749939%)" d="M 47.617188 38.285156 C 47.617188 39.25 46.832031 40.03125 45.867188 40.03125 C 44.902344 40.03125 44.121094 39.25 44.121094 38.285156 C 44.121094 37.320312 44.902344 36.539062 45.867188 36.539062 C 46.832031 36.539062 47.617188 37.320312 47.617188 38.285156 " fill-opacity="1" fill-rule="nonzero"/><path fill="rgb(60.389709%, 86.669922%, 82.749939%)" d="M 40.484375 35.742188 C 40.484375 36.707031 39.699219 37.488281 38.734375 37.488281 C 37.769531 37.488281 36.988281 36.707031 36.988281 35.742188 C 36.988281 34.78125 37.769531 34 38.734375 34 C 39.699219 34 40.484375 34.78125 40.484375 35.742188 " fill-opacity="1" fill-rule="nonzero"/><path fill="rgb(60.389709%, 86.669922%, 82.749939%)" d="M 34.765625 31.832031 C 34.765625 32.796875 33.984375 33.578125 33.019531 33.578125 C 32.054688 33.578125 31.269531 32.796875 31.269531 31.832031 C 31.269531 30.867188 32.054688 30.085938 33.019531 30.085938 C 33.984375 30.085938 34.765625 30.867188 34.765625 31.832031 " fill-opacity="1" fill-rule="nonzero"/><path fill="rgb(60.389709%, 86.669922%, 82.749939%)" d="M 27.570312 31.175781 C 27.570312 32.140625 26.789062 32.921875 25.820312 32.921875 C 24.855469 32.921875 24.074219 32.140625 24.074219 31.175781 C 24.074219 30.210938 24.855469 29.429688 25.820312 29.429688 C 26.789062 29.429688 27.570312 30.210938 27.570312 31.175781 " fill-opacity="1" fill-rule="nonzero"/><path fill="rgb(60.389709%, 86.669922%, 82.749939%)" d="M 47.617188 31.832031 C 47.617188 32.796875 46.832031 33.578125 45.867188 33.578125 C 44.902344 33.578125 44.121094 32.796875 44.121094 31.832031 C 44.121094 30.867188 44.902344 30.085938 45.867188 30.085938 C 46.832031 30.085938 47.617188 30.867188 47.617188 31.832031 " fill-opacity="1" fill-rule="nonzero"/><path fill="rgb(60.389709%, 86.669922%, 82.749939%)" d="M 54.746094 35.324219 C 54.746094 36.285156 53.964844 37.066406 53 37.066406 C 52.035156 37.066406 51.253906 36.285156 51.253906 35.324219 C 51.253906 34.359375 52.035156 33.578125 53 33.578125 C 53.964844 33.578125 54.746094 34.359375 54.746094 35.324219 " fill-opacity="1" fill-rule="nonzero"/></svg>