<svg xmlns="http://www.w3.org/2000/svg" xmlns:xlink="http://www.w3.org/1999/xlink" width="100" zoomAndPan="magnify" viewBox="0 0 75 74.999997" height="100" preserveAspectRatio="xMidYMid meet" version="1.0"><defs><clipPath id="id1"><path d="M 2.058594 43 L 27 43 L 27 51 L 2.058594 51 Z M 2.058594 43 " clip-rule="nonzero"/></clipPath><clipPath id="id2"><path d="M 15 51 L 73.308594 51 L 73.308594 69.289062 L 15 69.289062 Z M 15 51 " clip-rule="nonzero"/></clipPath><clipPath id="id3"><path d="M 63 57 L 73 57 L 73 69.289062 L 63 69.289062 Z M 63 57 " clip-rule="nonzero"/></clipPath><clipPath id="id4"><path d="M 60 57 L 70 57 L 70 69.289062 L 60 69.289062 Z M 60 57 " clip-rule="nonzero"/></clipPath><clipPath id="id5"><path d="M 56 56 L 66 56 L 66 69.289062 L 56 69.289062 Z M 56 56 " clip-rule="nonzero"/></clipPath><clipPath id="id6"><path d="M 51 55 L 62 55 L 62 69.289062 L 51 69.289062 Z M 51 55 " clip-rule="nonzero"/></clipPath><clipPath id="id7"><path d="M 46 55 L 58 55 L 58 69.289062 L 46 69.289062 Z M 46 55 " clip-rule="nonzero"/></clipPath><clipPath id="id8"><path d="M 40 54 L 53 54 L 53 69.289062 L 40 69.289062 Z M 40 54 " clip-rule="nonzero"/></clipPath><clipPath id="id9"><path d="M 33 53 L 48 53 L 48 69.289062 L 33 69.289062 Z M 33 53 " clip-rule="nonzero"/></clipPath><clipPath id="id10"><path d="M 25 53 L 42 53 L 42 69.289062 L 25 69.289062 Z M 25 53 " clip-rule="nonzero"/></clipPath><clipPath id="id11"><path d="M 19 68 L 22 68 L 22 69.289062 L 19 69.289062 Z M 19 68 " clip-rule="nonzero"/></clipPath><clipPath id="id12"><path d="M 15 5.539062 L 48 5.539062 L 48 44 L 15 44 Z M 15 5.539062 " clip-rule="nonzero"/></clipPath><clipPath id="id13"><path d="M 67 62 L 71 62 L 71 69.289062 L 67 69.289062 Z M 67 62 " clip-rule="nonzero"/></clipPath><clipPath id="id14"><path d="M 7 51 L 22 51 L 22 69.289062 L 7 69.289062 Z M 7 51 " clip-rule="nonzero"/></clipPath></defs><path fill="rgb(8.628845%, 12.939453%, 23.919678%)" d="M 4.128906 48.527344 C 4.121094 48.519531 4.109375 48.507812 4.101562 48.496094 C 4.109375 48.507812 4.121094 48.519531 4.128906 48.527344 Z M 4.128906 48.527344 " fill-opacity="1" fill-rule="nonzero"/><path fill="rgb(8.628845%, 12.939453%, 23.919678%)" d="M 4.074219 48.464844 C 4.066406 48.453125 4.058594 48.441406 4.054688 48.429688 C 4.058594 48.441406 4.066406 48.453125 4.074219 48.464844 Z M 4.074219 48.464844 " fill-opacity="1" fill-rule="nonzero"/><path fill="rgb(8.628845%, 12.939453%, 23.919678%)" d="M 4.273438 48.617188 C 4.257812 48.613281 4.246094 48.609375 4.234375 48.601562 C 4.246094 48.609375 4.257812 48.613281 4.273438 48.617188 Z M 4.273438 48.617188 " fill-opacity="1" fill-rule="nonzero"/><path fill="rgb(8.628845%, 12.939453%, 23.919678%)" d="M 4.355469 48.644531 C 4.34375 48.640625 4.328125 48.636719 4.3125 48.632812 C 4.328125 48.636719 4.34375 48.640625 4.355469 48.644531 Z M 4.355469 48.644531 " fill-opacity="1" fill-rule="nonzero"/><path fill="rgb(8.628845%, 12.939453%, 23.919678%)" d="M 4.195312 48.578125 C 4.183594 48.574219 4.175781 48.5625 4.164062 48.554688 C 4.175781 48.5625 4.183594 48.574219 4.195312 48.578125 Z M 4.195312 48.578125 " fill-opacity="1" fill-rule="nonzero"/><g clip-path="url(#id1)"><path fill="rgb(8.628845%, 12.939453%, 23.919678%)" d="M 4.03125 48.386719 C 4 48.316406 3.988281 48.238281 3.996094 48.15625 C 4.03125 47.914062 4.253906 47.746094 4.492188 47.777344 L 4.753906 47.8125 L 3.320312 44.097656 C 4.632812 44.417969 6.257812 44.808594 8.03125 45.238281 L 7.984375 45.113281 C 7.898438 44.886719 8.011719 44.636719 8.242188 44.550781 C 8.46875 44.464844 8.722656 44.582031 8.808594 44.808594 L 9.066406 45.492188 C 10.839844 45.921875 12.71875 46.378906 14.550781 46.824219 L 14.492188 46.652344 C 14.414062 46.425781 14.539062 46.175781 14.769531 46.097656 C 15 46.019531 15.25 46.144531 15.328125 46.371094 L 15.570312 47.074219 C 17.199219 47.46875 18.769531 47.855469 20.171875 48.199219 C 20.175781 48.011719 20.300781 47.84375 20.488281 47.792969 C 20.722656 47.726562 20.96875 47.863281 21.035156 48.09375 L 21.128906 48.433594 C 23.429688 49 25.125 49.421875 25.617188 49.554688 C 25.695312 49.746094 25.824219 50.144531 25.964844 50.625 L 26.925781 50.75 C 26.429688 48.996094 26.273438 48.894531 26.140625 48.816406 C 26.0625 48.765625 25.878906 48.652344 2.710938 43.050781 C 2.550781 43.011719 2.382812 43.066406 2.273438 43.1875 C 2.167969 43.308594 2.136719 43.480469 2.195312 43.632812 L 4.023438 48.371094 C 4.027344 48.375 4.027344 48.382812 4.03125 48.386719 Z M 4.03125 48.386719 " fill-opacity="1" fill-rule="nonzero"/></g><path fill="rgb(8.628845%, 12.939453%, 23.919678%)" d="M 9.222656 48.40625 L 10.214844 48.539062 L 9.066406 45.492188 L 8.808594 44.808594 C 8.722656 44.582031 8.46875 44.464844 8.242188 44.550781 C 8.011719 44.636719 7.898438 44.886719 7.980469 45.113281 L 8.03125 45.242188 Z M 9.222656 48.40625 " fill-opacity="1" fill-rule="nonzero"/><path fill="rgb(8.628845%, 12.939453%, 23.919678%)" d="M 15.371094 49.222656 L 16.347656 49.351562 L 15.570312 47.074219 L 15.328125 46.371094 C 15.25 46.144531 15 46.019531 14.769531 46.097656 C 14.539062 46.175781 14.414062 46.425781 14.492188 46.652344 L 14.550781 46.824219 Z M 15.371094 49.222656 " fill-opacity="1" fill-rule="nonzero"/><path fill="rgb(8.628845%, 12.939453%, 23.919678%)" d="M 20.183594 48.332031 L 20.636719 49.917969 L 21.589844 50.042969 L 21.128906 48.433594 L 21.035156 48.09375 C 20.96875 47.863281 20.722656 47.726562 20.488281 47.792969 C 20.300781 47.84375 20.175781 48.011719 20.167969 48.199219 C 20.167969 48.242188 20.171875 48.289062 20.183594 48.332031 Z M 20.183594 48.332031 " fill-opacity="1" fill-rule="nonzero"/><path fill="rgb(8.628845%, 12.939453%, 23.919678%)" d="M 50.703125 54.035156 L 51.714844 54.183594 L 51.25 51.617188 C 51.117188 51.617188 50.917969 50.371094 50.644531 48.296875 L 45.167969 18.078125 C 44.972656 19.675781 44.777344 21.703125 44.671875 24 L 49.851562 50.453125 C 50.046875 50.777344 50.246094 51.101562 50.457031 51.417969 C 50.589844 51.617188 50.535156 51.890625 50.328125 52.023438 C 50.28125 52.054688 50.226562 52.074219 50.171875 52.082031 L 50.554688 54.039062 C 50.601562 54.03125 50.652344 54.027344 50.703125 54.035156 Z M 50.703125 54.035156 " fill-opacity="1" fill-rule="nonzero"/><path fill="rgb(97.648621%, 70.588684%, 34.118652%)" d="M 9.46875 54.261719 C 9.046875 54.703125 8.621094 55.140625 8.191406 55.578125 C 8.167969 55.539062 8.148438 55.5 8.128906 55.464844 C 8.859375 56.796875 9.59375 58.085938 10.308594 59.304688 C 10.855469 58.710938 11.40625 58.113281 11.953125 57.515625 Z M 9.46875 54.261719 " fill-opacity="1" fill-rule="nonzero"/><path fill="rgb(97.648621%, 70.588684%, 34.118652%)" d="M 8.042969 52.390625 C 7.898438 52.199219 7.933594 51.921875 8.128906 51.777344 C 8.324219 51.632812 8.601562 51.671875 8.746094 51.863281 L 9.675781 53.082031 C 10.695312 51.992188 11.691406 50.878906 12.664062 49.746094 L 8.289062 49.164062 L 6.171875 51.773438 C 6.152344 51.734375 6.132812 51.699219 6.113281 51.660156 C 6.683594 52.78125 7.269531 53.890625 7.859375 54.972656 C 8.265625 54.5625 8.667969 54.148438 9.066406 53.730469 Z M 8.042969 52.390625 " fill-opacity="1" fill-rule="nonzero"/><path fill="rgb(97.648621%, 70.588684%, 34.118652%)" d="M 15.121094 61.671875 C 14.421875 62.375 13.714844 63.074219 13.003906 63.769531 C 14.007812 65.386719 14.878906 66.726562 15.503906 67.683594 C 16.292969 66.882812 17.082031 66.078125 17.863281 65.265625 Z M 15.121094 61.671875 " fill-opacity="1" fill-rule="nonzero"/><path fill="rgb(97.648621%, 70.588684%, 34.118652%)" d="M 8.019531 55.265625 C 7.96875 55.175781 7.921875 55.085938 7.871094 54.996094 C 7.921875 55.085938 7.96875 55.175781 8.019531 55.265625 Z M 8.019531 55.265625 " fill-opacity="1" fill-rule="nonzero"/><g clip-path="url(#id2)"><path fill="rgb(97.648621%, 70.588684%, 34.118652%)" d="M 31.394531 52.222656 C 31.375 52.222656 31.355469 52.222656 31.335938 52.21875 L 30.847656 52.15625 C 26.972656 56.570312 22.972656 60.921875 18.886719 65.160156 L 21.125 68.089844 C 25.949219 63.023438 30.585938 57.726562 34.972656 52.28125 C 35.226562 52.316406 35.480469 52.351562 35.738281 52.386719 C 31.226562 58 26.453125 63.457031 21.484375 68.671875 C 21.5 68.816406 21.441406 68.96875 21.3125 69.0625 C 21.234375 69.125 21.140625 69.152344 21.046875 69.152344 C 21.039062 69.152344 21.035156 69.148438 21.027344 69.148438 C 20.984375 69.195312 20.9375 69.242188 20.894531 69.289062 L 19.980469 69.289062 C 20.15625 69.105469 20.332031 68.921875 20.511719 68.734375 L 18.269531 65.796875 C 17.472656 66.617188 16.675781 67.433594 15.878906 68.246094 C 16.324219 68.917969 16.578125 69.289062 16.578125 69.289062 L 68.488281 69.289062 L 73.234375 57.886719 C 66.128906 56.777344 59.023438 55.714844 52.226562 54.726562 C 52.226562 54.726562 52.226562 54.730469 52.226562 54.730469 C 52.363281 54.75 52.5 54.769531 52.636719 54.789062 C 48.945312 59.742188 45.050781 64.597656 41.003906 69.289062 L 40.128906 69.289062 C 44.121094 64.6875 47.96875 59.917969 51.613281 55.054688 L 50.574219 54.902344 C 50.34375 54.867188 50.183594 54.660156 50.199219 54.433594 C 43.671875 53.492188 37.457031 52.617188 31.832031 51.84375 C 31.800781 52.0625 31.609375 52.222656 31.394531 52.222656 Z M 70.703125 63.597656 L 67.992188 68.949219 C 67.914062 69.101562 67.757812 69.191406 67.597656 69.191406 C 67.53125 69.191406 67.464844 69.175781 67.402344 69.144531 C 67.183594 69.035156 67.09375 68.773438 67.203125 68.558594 L 69.914062 63.203125 C 70.023438 62.988281 70.289062 62.898438 70.507812 63.007812 C 70.722656 63.117188 70.8125 63.378906 70.703125 63.597656 Z M 72.316406 57.742188 L 64.777344 69.289062 L 63.988281 69.289062 L 71.601562 57.632812 C 71.839844 57.667969 72.078125 57.707031 72.316406 57.742188 Z M 69.632812 57.328125 C 66.886719 61.289062 64.152344 65.285156 61.453125 69.289062 L 60.65625 69.289062 C 63.378906 65.246094 66.132812 61.214844 68.90625 57.214844 C 69.148438 57.253906 69.390625 57.289062 69.632812 57.328125 Z M 65.671875 56.722656 C 62.9375 61.003906 60.035156 65.203125 56.996094 69.289062 L 56.175781 69.289062 C 59.253906 65.171875 62.191406 60.933594 64.957031 56.617188 C 65.195312 56.652344 65.433594 56.6875 65.671875 56.722656 Z M 61.421875 56.085938 C 58.40625 60.488281 55.34375 64.90625 52.269531 69.289062 L 51.460938 69.289062 C 54.5625 64.871094 57.65625 60.417969 60.695312 55.976562 C 60.9375 56.011719 61.179688 56.046875 61.421875 56.085938 Z M 56.601562 55.367188 C 56.84375 55.40625 57.089844 55.441406 57.332031 55.476562 C 54.015625 60.179688 50.515625 64.804688 46.875 69.289062 L 46.023438 69.289062 C 49.703125 64.773438 53.246094 60.113281 56.601562 55.367188 Z M 47.152344 53.996094 C 42.863281 59.167969 38.441406 64.289062 33.949219 69.289062 L 33.058594 69.289062 C 37.59375 64.257812 42.058594 59.097656 46.386719 53.886719 C 46.640625 53.921875 46.894531 53.960938 47.152344 53.996094 Z M 41.132812 53.140625 C 36.617188 58.765625 31.769531 64.175781 26.667969 69.289062 L 25.738281 69.289062 C 30.902344 64.148438 35.804688 58.703125 40.371094 53.035156 C 40.625 53.070312 40.878906 53.105469 41.132812 53.140625 Z M 41.132812 53.140625 " fill-opacity="1" fill-rule="nonzero"/></g><path fill="rgb(97.648621%, 70.588684%, 34.118652%)" d="M 4.65625 48.683594 C 4.691406 48.757812 4.726562 48.832031 4.761719 48.90625 C 5.109375 49.648438 5.472656 50.390625 5.84375 51.128906 L 7.523438 49.0625 Z M 4.65625 48.683594 " fill-opacity="1" fill-rule="nonzero"/><path fill="rgb(97.648621%, 70.588684%, 34.118652%)" d="M 15.34375 60.511719 C 18.320312 57.503906 21.21875 54.410156 24.019531 51.25 L 19.042969 50.589844 C 17.039062 52.867188 15.007812 55.136719 12.960938 57.386719 Z M 15.34375 60.511719 " fill-opacity="1" fill-rule="nonzero"/><path fill="rgb(97.648621%, 70.588684%, 34.118652%)" d="M 18.484375 64.628906 C 22.433594 60.527344 26.300781 56.320312 30.058594 52.050781 L 24.8125 51.355469 C 21.890625 54.660156 18.859375 57.898438 15.75 61.042969 Z M 18.484375 64.628906 " fill-opacity="1" fill-rule="nonzero"/><path fill="rgb(97.648621%, 70.588684%, 34.118652%)" d="M 6.054688 51.542969 C 5.992188 51.421875 5.929688 51.300781 5.871094 51.179688 C 5.929688 51.300781 5.992188 51.421875 6.054688 51.542969 Z M 6.054688 51.542969 " fill-opacity="1" fill-rule="nonzero"/><path fill="rgb(97.648621%, 70.588684%, 34.118652%)" d="M 12.554688 56.851562 C 14.472656 54.746094 16.375 52.621094 18.253906 50.488281 L 13.445312 49.847656 C 12.355469 51.128906 11.234375 52.382812 10.082031 53.613281 Z M 12.554688 56.851562 " fill-opacity="1" fill-rule="nonzero"/><path fill="rgb(97.648621%, 70.588684%, 34.118652%)" d="M 14.71875 61.144531 L 12.359375 58.046875 C 11.792969 58.667969 11.226562 59.285156 10.65625 59.898438 C 11.351562 61.078125 12.023438 62.183594 12.648438 63.195312 C 13.34375 62.515625 14.03125 61.832031 14.71875 61.144531 Z M 14.71875 61.144531 " fill-opacity="1" fill-rule="nonzero"/><g clip-path="url(#id3)"><path fill="rgb(98.81897%, 78.819275%, 51.368713%)" d="M 64.777344 69.289062 L 72.316406 57.742188 C 72.078125 57.707031 71.839844 57.667969 71.601562 57.632812 L 63.988281 69.289062 Z M 64.777344 69.289062 " fill-opacity="1" fill-rule="nonzero"/></g><g clip-path="url(#id4)"><path fill="rgb(98.81897%, 78.819275%, 51.368713%)" d="M 61.453125 69.289062 C 64.152344 65.285156 66.886719 61.289062 69.632812 57.328125 C 69.390625 57.289062 69.148438 57.253906 68.90625 57.214844 C 66.132812 61.214844 63.378906 65.246094 60.65625 69.289062 Z M 61.453125 69.289062 " fill-opacity="1" fill-rule="nonzero"/></g><g clip-path="url(#id5)"><path fill="rgb(98.81897%, 78.819275%, 51.368713%)" d="M 56.996094 69.289062 C 60.035156 65.203125 62.9375 61.003906 65.671875 56.722656 C 65.433594 56.6875 65.195312 56.652344 64.957031 56.617188 C 62.191406 60.933594 59.253906 65.171875 56.175781 69.289062 Z M 56.996094 69.289062 " fill-opacity="1" fill-rule="nonzero"/></g><g clip-path="url(#id6)"><path fill="rgb(98.81897%, 78.819275%, 51.368713%)" d="M 52.269531 69.289062 C 55.34375 64.90625 58.40625 60.488281 61.421875 56.085938 C 61.179688 56.046875 60.9375 56.011719 60.695312 55.976562 C 57.65625 60.417969 54.566406 64.871094 51.460938 69.289062 Z M 52.269531 69.289062 " fill-opacity="1" fill-rule="nonzero"/></g><g clip-path="url(#id7)"><path fill="rgb(98.81897%, 78.819275%, 51.368713%)" d="M 57.332031 55.476562 C 57.089844 55.441406 56.84375 55.40625 56.601562 55.367188 C 53.246094 60.113281 49.703125 64.773438 46.023438 69.289062 L 46.875 69.289062 C 50.515625 64.804688 54.015625 60.179688 57.332031 55.476562 Z M 57.332031 55.476562 " fill-opacity="1" fill-rule="nonzero"/></g><g clip-path="url(#id8)"><path fill="rgb(98.81897%, 78.819275%, 51.368713%)" d="M 51.796875 55.078125 C 51.773438 55.078125 51.753906 55.074219 51.730469 55.070312 L 51.613281 55.054688 C 47.96875 59.917969 44.121094 64.6875 40.128906 69.289062 L 41.003906 69.289062 C 45.050781 64.597656 48.945312 59.742188 52.636719 54.789062 C 52.5 54.769531 52.363281 54.75 52.226562 54.730469 C 52.183594 54.933594 52.003906 55.078125 51.796875 55.078125 Z M 51.796875 55.078125 " fill-opacity="1" fill-rule="nonzero"/></g><g clip-path="url(#id9)"><path fill="rgb(98.81897%, 78.819275%, 51.368713%)" d="M 33.949219 69.289062 C 38.441406 64.289062 42.863281 59.167969 47.152344 53.996094 C 46.894531 53.960938 46.640625 53.921875 46.386719 53.886719 C 42.058594 59.097656 37.59375 64.257812 33.058594 69.289062 Z M 33.949219 69.289062 " fill-opacity="1" fill-rule="nonzero"/></g><g clip-path="url(#id10)"><path fill="rgb(98.81897%, 78.819275%, 51.368713%)" d="M 25.738281 69.289062 L 26.667969 69.289062 C 31.769531 64.175781 36.617188 58.765625 41.132812 53.140625 C 40.878906 53.105469 40.625 53.070312 40.371094 53.035156 C 35.804688 58.703125 30.902344 64.148438 25.738281 69.289062 Z M 25.738281 69.289062 " fill-opacity="1" fill-rule="nonzero"/></g><g clip-path="url(#id11)"><path fill="rgb(98.81897%, 78.819275%, 51.368713%)" d="M 20.695312 68.980469 L 20.511719 68.734375 C 20.332031 68.921875 20.15625 69.105469 19.976562 69.289062 L 20.894531 69.289062 C 20.9375 69.242188 20.984375 69.195312 21.027344 69.148438 C 20.902344 69.144531 20.777344 69.085938 20.695312 68.980469 Z M 20.695312 68.980469 " fill-opacity="1" fill-rule="nonzero"/></g><path fill="rgb(98.81897%, 78.819275%, 51.368713%)" d="M 21.484375 68.671875 C 26.453125 63.457031 31.226562 58 35.734375 52.386719 C 35.480469 52.351562 35.226562 52.316406 34.972656 52.28125 C 30.585938 57.726562 25.949219 63.023438 21.125 68.089844 L 21.398438 68.449219 C 21.449219 68.515625 21.476562 68.59375 21.484375 68.671875 Z M 21.484375 68.671875 " fill-opacity="1" fill-rule="nonzero"/><path fill="rgb(98.81897%, 78.819275%, 51.368713%)" d="M 18.886719 65.160156 C 22.972656 60.921875 26.96875 56.570312 30.847656 52.15625 L 30.058594 52.050781 C 26.300781 56.320312 22.433594 60.527344 18.484375 64.628906 Z M 18.886719 65.160156 " fill-opacity="1" fill-rule="nonzero"/><path fill="rgb(98.81897%, 78.819275%, 51.368713%)" d="M 17.863281 65.265625 C 17.082031 66.078125 16.292969 66.882812 15.503906 67.683594 C 15.640625 67.890625 15.765625 68.078125 15.875 68.246094 C 16.675781 67.433594 17.472656 66.617188 18.269531 65.796875 Z M 17.863281 65.265625 " fill-opacity="1" fill-rule="nonzero"/><path fill="rgb(98.81897%, 78.819275%, 51.368713%)" d="M 15.75 61.042969 C 18.859375 57.898438 21.890625 54.660156 24.8125 51.355469 L 24.019531 51.25 C 21.21875 54.410156 18.320312 57.503906 15.34375 60.511719 Z M 15.75 61.042969 " fill-opacity="1" fill-rule="nonzero"/><path fill="rgb(98.81897%, 78.819275%, 51.368713%)" d="M 15.121094 61.671875 L 14.71875 61.144531 C 14.03125 61.832031 13.34375 62.515625 12.648438 63.195312 C 12.769531 63.390625 12.886719 63.582031 13.003906 63.769531 C 13.714844 63.074219 14.421875 62.375 15.121094 61.671875 Z M 15.121094 61.671875 " fill-opacity="1" fill-rule="nonzero"/><path fill="rgb(98.81897%, 78.819275%, 51.368713%)" d="M 12.960938 57.386719 C 15.007812 55.136719 17.039062 52.867188 19.042969 50.589844 L 18.253906 50.484375 C 16.375 52.621094 14.472656 54.746094 12.554688 56.851562 Z M 12.960938 57.386719 " fill-opacity="1" fill-rule="nonzero"/><path fill="rgb(98.81897%, 78.819275%, 51.368713%)" d="M 11.953125 57.515625 C 11.40625 58.113281 10.855469 58.710938 10.308594 59.304688 C 10.425781 59.503906 10.542969 59.703125 10.65625 59.898438 C 11.226562 59.285156 11.792969 58.667969 12.359375 58.046875 Z M 11.953125 57.515625 " fill-opacity="1" fill-rule="nonzero"/><path fill="rgb(98.81897%, 78.819275%, 51.368713%)" d="M 10.082031 53.613281 C 11.234375 52.382812 12.355469 51.128906 13.445312 49.847656 L 12.664062 49.746094 C 11.691406 50.878906 10.695312 51.992188 9.675781 53.082031 Z M 10.082031 53.613281 " fill-opacity="1" fill-rule="nonzero"/><path fill="rgb(98.81897%, 78.819275%, 51.368713%)" d="M 9.46875 54.261719 L 9.0625 53.730469 C 8.667969 54.148438 8.265625 54.5625 7.859375 54.972656 C 7.863281 54.980469 7.867188 54.988281 7.871094 54.996094 C 7.921875 55.085938 7.96875 55.175781 8.019531 55.265625 C 8.054688 55.332031 8.089844 55.398438 8.128906 55.464844 C 8.148438 55.5 8.167969 55.539062 8.1875 55.578125 C 8.621094 55.140625 9.046875 54.703125 9.46875 54.261719 Z M 9.46875 54.261719 " fill-opacity="1" fill-rule="nonzero"/><path fill="rgb(98.81897%, 78.819275%, 51.368713%)" d="M 8.289062 49.164062 L 7.523438 49.0625 L 5.84375 51.128906 C 5.851562 51.144531 5.859375 51.160156 5.871094 51.179688 C 5.929688 51.300781 5.992188 51.421875 6.054688 51.542969 C 6.074219 51.582031 6.09375 51.621094 6.113281 51.660156 C 6.132812 51.699219 6.152344 51.734375 6.171875 51.773438 Z M 8.289062 49.164062 " fill-opacity="1" fill-rule="nonzero"/><path fill="rgb(76.469421%, 82.348633%, 88.238525%)" d="M 50.644531 48.296875 C 50.917969 50.371094 51.117188 51.617188 51.246094 51.617188 C 53.140625 51.625 54.921875 51.519531 56.59375 51.335938 C 56.59375 51.328125 56.589844 51.320312 56.589844 51.3125 C 56.578125 51.074219 56.765625 50.867188 57.007812 50.851562 C 57.09375 50.847656 65.785156 50.335938 71.921875 46.25 C 57.820312 37.015625 48.421875 19.804688 45.71875 14.410156 C 45.691406 14.5625 45.640625 14.832031 45.578125 15.207031 C 48.070312 25.292969 49.746094 41.394531 50.644531 48.296875 Z M 50.644531 48.296875 " fill-opacity="1" fill-rule="nonzero"/><path fill="rgb(76.469421%, 82.348633%, 88.238525%)" d="M 45.394531 13.75 C 45.390625 13.742188 45.386719 13.734375 45.378906 13.726562 C 45.378906 13.734375 45.378906 13.742188 45.375 13.75 C 45.382812 13.75 45.386719 13.75 45.394531 13.75 Z M 45.394531 13.75 " fill-opacity="1" fill-rule="nonzero"/><path fill="rgb(92.158508%, 92.939758%, 94.898987%)" d="M 44.882812 14.09375 C 44.929688 13.867188 45.148438 13.71875 45.375 13.75 C 45.378906 13.742188 45.378906 13.734375 45.378906 13.726562 C 45.871094 10.304688 46.398438 7.746094 46.636719 6.644531 C 44.675781 7.914062 34.804688 14.855469 22.691406 33.0625 C 22.730469 33.082031 22.773438 33.101562 22.808594 33.132812 L 24.074219 34.21875 C 24.261719 34.375 24.28125 34.652344 24.121094 34.835938 C 24.035156 34.9375 23.910156 34.988281 23.789062 34.988281 C 23.6875 34.988281 23.582031 34.953125 23.5 34.882812 L 22.230469 33.796875 C 22.226562 33.792969 22.222656 33.785156 22.214844 33.78125 C 21.738281 34.507812 21.257812 35.25 20.773438 36.011719 C 20.78125 36.015625 20.785156 36.015625 20.792969 36.019531 L 24.007812 37.859375 C 24.21875 37.980469 24.292969 38.246094 24.171875 38.457031 C 24.089844 38.597656 23.941406 38.675781 23.789062 38.675781 C 23.710938 38.675781 23.636719 38.65625 23.566406 38.617188 L 20.351562 36.777344 C 20.335938 36.769531 20.324219 36.757812 20.308594 36.746094 C 19.84375 37.484375 19.375 38.242188 18.90625 39.015625 C 18.949219 39.019531 18.996094 39.03125 19.042969 39.050781 L 23.964844 41.191406 C 24.1875 41.289062 24.289062 41.546875 24.191406 41.769531 C 24.121094 41.933594 23.957031 42.03125 23.789062 42.03125 C 23.730469 42.03125 23.667969 42.019531 23.609375 41.992188 L 18.6875 39.851562 C 18.605469 39.816406 18.542969 39.757812 18.496094 39.691406 C 17.804688 40.839844 17.109375 42.023438 16.40625 43.246094 C 16.558594 43.320312 16.71875 43.398438 16.882812 43.476562 C 25.085938 47.292969 45.765625 50.921875 49.503906 51.558594 C 44.707031 44.066406 43.6875 34.375 43.6875 27.511719 C 43.683594 19.988281 44.871094 14.152344 44.882812 14.09375 Z M 44.882812 14.09375 " fill-opacity="1" fill-rule="nonzero"/><path fill="rgb(8.628845%, 12.939453%, 23.919678%)" d="M 50.457031 51.417969 C 50.246094 51.101562 50.046875 50.777344 49.851562 50.453125 C 44.957031 42.3125 44.320312 31.644531 44.671875 24 C 44.777344 21.703125 44.972656 19.675781 45.167969 18.078125 C 45.316406 16.84375 45.46875 15.867188 45.578125 15.207031 C 45.640625 14.832031 45.691406 14.5625 45.71875 14.414062 C 45.734375 14.328125 45.746094 14.277344 45.746094 14.269531 C 45.796875 14.03125 45.644531 13.800781 45.40625 13.753906 C 45.402344 13.753906 45.398438 13.753906 45.394531 13.75 C 45.386719 13.75 45.382812 13.75 45.375 13.75 C 45.148438 13.71875 44.929688 13.867188 44.882812 14.09375 C 44.871094 14.152344 43.683594 19.988281 43.6875 27.511719 C 43.6875 34.375 44.707031 44.066406 49.503906 51.558594 C 49.574219 51.671875 49.644531 51.785156 49.71875 51.898438 C 49.804688 52.027344 49.945312 52.09375 50.085938 52.09375 C 50.117188 52.09375 50.144531 52.089844 50.171875 52.082031 C 50.226562 52.074219 50.28125 52.054688 50.328125 52.023438 C 50.535156 51.890625 50.589844 51.621094 50.457031 51.417969 Z M 50.457031 51.417969 " fill-opacity="1" fill-rule="nonzero"/><path fill="rgb(8.628845%, 12.939453%, 23.919678%)" d="M 18.6875 39.851562 L 23.609375 41.992188 C 23.667969 42.019531 23.730469 42.03125 23.789062 42.03125 C 23.957031 42.03125 24.121094 41.933594 24.191406 41.769531 C 24.289062 41.546875 24.1875 41.289062 23.964844 41.191406 L 19.042969 39.050781 C 18.996094 39.03125 18.949219 39.019531 18.90625 39.015625 C 18.769531 39.242188 18.632812 39.464844 18.496094 39.691406 C 18.542969 39.757812 18.605469 39.816406 18.6875 39.851562 Z M 18.6875 39.851562 " fill-opacity="1" fill-rule="nonzero"/><path fill="rgb(8.628845%, 12.939453%, 23.919678%)" d="M 20.351562 36.777344 L 23.566406 38.617188 C 23.636719 38.65625 23.710938 38.675781 23.789062 38.675781 C 23.941406 38.675781 24.089844 38.597656 24.171875 38.457031 C 24.292969 38.246094 24.21875 37.980469 24.007812 37.859375 L 20.792969 36.019531 C 20.785156 36.015625 20.78125 36.015625 20.773438 36.011719 C 20.617188 36.253906 20.464844 36.5 20.308594 36.746094 C 20.324219 36.757812 20.335938 36.769531 20.351562 36.777344 Z M 20.351562 36.777344 " fill-opacity="1" fill-rule="nonzero"/><path fill="rgb(8.628845%, 12.939453%, 23.919678%)" d="M 22.230469 33.796875 L 23.5 34.882812 C 23.582031 34.953125 23.6875 34.988281 23.789062 34.988281 C 23.910156 34.988281 24.035156 34.9375 24.121094 34.835938 C 24.28125 34.652344 24.261719 34.375 24.078125 34.21875 L 22.808594 33.132812 C 22.773438 33.101562 22.730469 33.082031 22.691406 33.0625 C 22.535156 33.300781 22.375 33.539062 22.214844 33.78125 C 22.222656 33.785156 22.226562 33.792969 22.230469 33.796875 Z M 22.230469 33.796875 " fill-opacity="1" fill-rule="nonzero"/><g clip-path="url(#id12)"><path fill="rgb(8.628845%, 12.939453%, 23.919678%)" d="M 18.90625 39.015625 C 19.375 38.242188 19.84375 37.488281 20.308594 36.746094 C 20.464844 36.5 20.621094 36.253906 20.773438 36.011719 C 21.257812 35.25 21.738281 34.507812 22.214844 33.78125 C 22.375 33.539062 22.535156 33.300781 22.691406 33.0625 C 34.804688 14.855469 44.675781 7.914062 46.636719 6.644531 C 46.859375 6.5 46.980469 6.429688 46.992188 6.421875 C 47.203125 6.300781 47.277344 6.03125 47.15625 5.824219 C 47.03125 5.613281 46.761719 5.542969 46.550781 5.664062 C 46.40625 5.746094 42.882812 7.792969 37.285156 13.410156 C 32.136719 18.578125 24.203125 27.875 15.628906 42.828125 C 15.511719 43.039062 15.582031 43.304688 15.796875 43.425781 C 15.863281 43.464844 15.941406 43.484375 16.011719 43.484375 C 16.167969 43.484375 16.316406 43.402344 16.398438 43.261719 C 16.402344 43.257812 16.402344 43.25 16.40625 43.246094 C 17.105469 42.023438 17.804688 40.839844 18.496094 39.691406 C 18.632812 39.464844 18.769531 39.242188 18.90625 39.015625 Z M 18.90625 39.015625 " fill-opacity="1" fill-rule="nonzero"/></g><path fill="rgb(8.628845%, 12.939453%, 23.919678%)" d="M 50.574219 54.902344 L 51.613281 55.054688 L 51.730469 55.070312 C 51.753906 55.074219 51.773438 55.078125 51.796875 55.078125 C 52.003906 55.078125 52.183594 54.933594 52.226562 54.730469 C 52.226562 54.730469 52.226562 54.726562 52.226562 54.726562 C 52.226562 54.71875 52.230469 54.710938 52.230469 54.703125 C 52.269531 54.464844 52.101562 54.242188 51.859375 54.207031 L 51.714844 54.183594 L 50.703125 54.035156 C 50.652344 54.027344 50.601562 54.03125 50.554688 54.039062 C 50.375 54.074219 50.230469 54.214844 50.203125 54.402344 C 50.199219 54.414062 50.199219 54.425781 50.199219 54.433594 C 50.183594 54.660156 50.34375 54.867188 50.574219 54.902344 Z M 50.574219 54.902344 " fill-opacity="1" fill-rule="nonzero"/><g clip-path="url(#id13)"><path fill="rgb(8.628845%, 12.939453%, 23.919678%)" d="M 70.507812 63.007812 C 70.289062 62.898438 70.023438 62.988281 69.914062 63.203125 L 67.203125 68.558594 C 67.09375 68.773438 67.183594 69.035156 67.402344 69.144531 C 67.464844 69.175781 67.53125 69.191406 67.597656 69.191406 C 67.757812 69.191406 67.914062 69.101562 67.992188 68.949219 L 70.703125 63.597656 C 70.8125 63.378906 70.722656 63.117188 70.507812 63.007812 Z M 70.507812 63.007812 " fill-opacity="1" fill-rule="nonzero"/></g><path fill="rgb(8.628845%, 12.939453%, 23.919678%)" d="M 21.589844 50.042969 L 20.636719 49.917969 L 16.347656 49.351562 L 15.371094 49.222656 L 10.214844 48.539062 L 9.222656 48.40625 L 4.753906 47.8125 L 4.492188 47.777344 C 4.253906 47.746094 4.03125 47.914062 3.996094 48.15625 C 3.988281 48.238281 4 48.316406 4.03125 48.386719 C 4.039062 48.402344 4.046875 48.414062 4.054688 48.429688 C 4.058594 48.441406 4.066406 48.453125 4.074219 48.464844 C 4.082031 48.476562 4.09375 48.488281 4.101562 48.496094 C 4.109375 48.507812 4.121094 48.519531 4.128906 48.527344 C 4.140625 48.539062 4.152344 48.546875 4.164062 48.554688 C 4.171875 48.5625 4.183594 48.574219 4.195312 48.578125 C 4.207031 48.585938 4.222656 48.59375 4.234375 48.601562 C 4.246094 48.609375 4.257812 48.613281 4.273438 48.617188 C 4.285156 48.625 4.296875 48.628906 4.3125 48.632812 C 4.328125 48.636719 4.339844 48.640625 4.355469 48.640625 C 4.363281 48.644531 4.371094 48.644531 4.375 48.648438 L 4.65625 48.683594 L 7.523438 49.0625 L 8.289062 49.164062 L 12.664062 49.746094 L 13.445312 49.847656 L 18.253906 50.484375 L 19.042969 50.589844 L 24.019531 51.25 L 24.8125 51.355469 L 30.058594 52.050781 L 30.84375 52.152344 L 31.335938 52.21875 C 31.355469 52.222656 31.375 52.222656 31.394531 52.222656 C 31.609375 52.222656 31.800781 52.0625 31.828125 51.84375 C 31.832031 51.84375 31.832031 51.84375 31.832031 51.84375 C 31.863281 51.601562 31.691406 51.382812 31.453125 51.351562 L 26.921875 50.75 L 25.964844 50.625 Z M 21.589844 50.042969 " fill-opacity="1" fill-rule="nonzero"/><path fill="rgb(8.628845%, 12.939453%, 23.919678%)" d="M 56.589844 51.3125 C 56.589844 51.320312 56.59375 51.328125 56.59375 51.335938 C 56.617188 51.558594 56.804688 51.726562 57.03125 51.726562 C 57.039062 51.726562 57.046875 51.726562 57.054688 51.726562 C 57.425781 51.707031 66.21875 51.191406 72.570312 46.875 C 72.773438 46.738281 72.824219 46.464844 72.6875 46.265625 C 72.546875 46.066406 72.273438 46.015625 72.074219 46.152344 C 72.023438 46.183594 71.972656 46.21875 71.921875 46.25 C 65.785156 50.335938 57.09375 50.847656 57.007812 50.851562 C 56.765625 50.867188 56.578125 51.074219 56.589844 51.3125 Z M 56.589844 51.3125 " fill-opacity="1" fill-rule="nonzero"/><g clip-path="url(#id14)"><path fill="rgb(8.628845%, 12.939453%, 23.919678%)" d="M 15.75 61.042969 L 15.34375 60.511719 L 12.960938 57.386719 L 12.554688 56.851562 L 10.082031 53.613281 L 9.675781 53.082031 L 8.746094 51.863281 C 8.601562 51.671875 8.324219 51.632812 8.128906 51.777344 C 7.933594 51.921875 7.898438 52.199219 8.042969 52.390625 L 9.0625 53.730469 L 9.46875 54.261719 L 11.953125 57.515625 L 12.359375 58.046875 L 14.71875 61.144531 L 15.121094 61.671875 L 17.863281 65.265625 L 18.269531 65.796875 L 20.511719 68.734375 L 20.695312 68.980469 C 20.777344 69.085938 20.902344 69.144531 21.027344 69.148438 C 21.035156 69.148438 21.039062 69.152344 21.046875 69.152344 C 21.140625 69.152344 21.234375 69.125 21.3125 69.0625 C 21.441406 68.96875 21.5 68.816406 21.484375 68.671875 C 21.476562 68.59375 21.449219 68.515625 21.398438 68.449219 L 21.125 68.089844 L 18.886719 65.160156 L 18.484375 64.628906 Z M 15.75 61.042969 " fill-opacity="1" fill-rule="nonzero"/></g></svg>